<?xml version="1.0" encoding="utf-8"?>
<!-- Generator: Adobe Illustrator 16.0.0, SVG Export Plug-In . SVG Version: 6.00 Build 0)  -->
<!DOCTYPE svg PUBLIC "-//W3C//DTD SVG 1.1//EN" "http://www.w3.org/Graphics/SVG/1.1/DTD/svg11.dtd">
<svg fill="#343434" version="1.1" id="Layer_1" xmlns="http://www.w3.org/2000/svg" xmlns:xlink="http://www.w3.org/1999/xlink" x="0px" y="0px"
	 width="32px" height="32px" viewBox="0 0 32 32" enable-background="new 0 0 32 32" xml:space="preserve" >
<path d="M31.984,27.752L29.232,5.736C28.971,3.641,27.111,2,25,2h-5h-8H7C4.888,2,3.029,3.641,2.768,5.736L0.016,27.752
	c-0.137,1.097,0.64,2.096,1.736,2.232c1.097,0.14,2.096-0.641,2.232-1.736L6.736,6.231C6.748,6.141,6.908,6,7,6h3v12
	c-1.104,0-2,0.896-2,2v4c0,1.104,0.896,2,2,2h12c1.104,0,2-0.896,2-2v-4c0-1.104-0.896-2-2-2V6h3c0.092,0,0.252,0.141,0.264,0.232
	l2.752,22.016c0.127,1.012,0.988,1.753,1.982,1.752c0.082,0,0.166-0.005,0.25-0.016C31.344,29.848,32.121,28.849,31.984,27.752z
	 M18,18h-4V6h4V18z"/>
</svg>
